# xmcd
#
# Track frame offsets:
#	150
#	6522
#	30464
#	56821
#	82802
#	103433
#	154120
#	207877
#	226715
#	306644
#	343454
#
# Disc length: 4648 seconds
#
# Revision: 0
# Processed by: cddbd v1.5.2PL0 Copyright (c) Steve Scherf et al.
# Submitted via: audiograbber 1.82.02
#
DISCID=9712260b
DTITLE=The Allman Brothers Band - Pine Nob (Bootleg) - Disc 1
DYEAR=2001
DGENRE=Southern Rock
TTITLE0=Crowd Pre Show
TTITLE1=Hot 'Lanta
TTITLE2=Ain't Wastin' Time No More
TTITLE3=Statesboro Blues
TTITLE4=Don't Keep Me Wonderin'
TTITLE5=Rockin' Horse
TTITLE6=Desdemona
TTITLE7=Midnight Rider
TTITLE8=Who To Believe, The Same Thing
TTITLE9=Soulshine
TTITLE10=Crowd
EXTD=
EXTT0=
EXTT1=
EXTT2=
EXTT3=
EXTT4=
EXTT5=
EXTT6=
EXTT7=
EXTT8=
EXTT9=
EXTT10=
PLAYORDER=
